<svg id="visual" viewBox="0 0 1920 1080" width="1920" height="1080" xmlns="http://www.w3.org/2000/svg" xmlns:xlink="http://www.w3.org/1999/xlink" version="1.1"><rect x="0" y="0" width="1920" height="1080" fill="#ffffff"></rect><path d="M0 866L29.2 865C58.3 864 116.7 862 174.8 858C233 854 291 848 349.2 845.2C407.3 842.3 465.7 842.7 523.8 846.8C582 851 640 859 698.2 859.7C756.3 860.3 814.7 853.7 872.8 848C931 842.3 989 837.7 1047.2 839.7C1105.3 841.7 1163.7 850.3 1221.8 847.8C1280 845.3 1338 831.7 1396.2 827.3C1454.3 823 1512.7 828 1570.8 831.2C1629 834.3 1687 835.7 1745.2 837.3C1803.3 839 1861.7 841 1890.8 842L1920 843L1920 1081L1890.8 1081C1861.7 1081 1803.3 1081 1745.2 1081C1687 1081 1629 1081 1570.8 1081C1512.7 1081 1454.3 1081 1396.2 1081C1338 1081 1280 1081 1221.8 1081C1163.7 1081 1105.3 1081 1047.2 1081C989 1081 931 1081 872.8 1081C814.7 1081 756.3 1081 698.2 1081C640 1081 582 1081 523.8 1081C465.7 1081 407.3 1081 349.2 1081C291 1081 233 1081 174.8 1081C116.7 1081 58.3 1081 29.2 1081L0 1081Z" fill="#209fdf"></path><path d="M0 889L29.2 887.5C58.3 886 116.7 883 174.8 880C233 877 291 874 349.2 878C407.3 882 465.7 893 523.8 893.7C582 894.3 640 884.7 698.2 880.2C756.3 875.7 814.7 876.3 872.8 876.5C931 876.7 989 876.3 1047.2 880C1105.3 883.7 1163.7 891.3 1221.8 896.8C1280 902.3 1338 905.7 1396.2 900.5C1454.3 895.3 1512.7 881.7 1570.8 874.8C1629 868 1687 868 1745.2 874.2C1803.3 880.3 1861.7 892.7 1890.8 898.8L1920 905L1920 1081L1890.8 1081C1861.7 1081 1803.3 1081 1745.2 1081C1687 1081 1629 1081 1570.8 1081C1512.7 1081 1454.3 1081 1396.2 1081C1338 1081 1280 1081 1221.8 1081C1163.7 1081 1105.3 1081 1047.2 1081C989 1081 931 1081 872.8 1081C814.7 1081 756.3 1081 698.2 1081C640 1081 582 1081 523.8 1081C465.7 1081 407.3 1081 349.2 1081C291 1081 233 1081 174.8 1081C116.7 1081 58.3 1081 29.2 1081L0 1081Z" fill="#198cc6"></path><path d="M0 954L29.2 949.2C58.3 944.3 116.7 934.7 174.8 929.3C233 924 291 923 349.2 927.7C407.3 932.3 465.7 942.7 523.8 946.5C582 950.3 640 947.7 698.2 941.8C756.3 936 814.7 927 872.8 927.7C931 928.3 989 938.7 1047.2 941.7C1105.3 944.7 1163.7 940.3 1221.8 936.8C1280 933.3 1338 930.7 1396.2 927.5C1454.3 924.3 1512.7 920.7 1570.8 923.7C1629 926.7 1687 936.3 1745.2 938C1803.3 939.7 1861.7 933.3 1890.8 930.2L1920 927L1920 1081L1890.8 1081C1861.7 1081 1803.3 1081 1745.2 1081C1687 1081 1629 1081 1570.8 1081C1512.7 1081 1454.3 1081 1396.2 1081C1338 1081 1280 1081 1221.8 1081C1163.7 1081 1105.3 1081 1047.2 1081C989 1081 931 1081 872.8 1081C814.7 1081 756.3 1081 698.2 1081C640 1081 582 1081 523.8 1081C465.7 1081 407.3 1081 349.2 1081C291 1081 233 1081 174.8 1081C116.7 1081 58.3 1081 29.2 1081L0 1081Z" fill="#1279ae"></path><path d="M0 969L29.2 967.7C58.3 966.3 116.7 963.7 174.8 965.8C233 968 291 975 349.2 976.7C407.3 978.3 465.7 974.7 523.8 975.3C582 976 640 981 698.2 980.7C756.3 980.3 814.7 974.7 872.8 973.7C931 972.7 989 976.3 1047.2 975.5C1105.3 974.7 1163.7 969.3 1221.8 971.2C1280 973 1338 982 1396.2 982C1454.3 982 1512.7 973 1570.8 970.2C1629 967.3 1687 970.7 1745.2 976.2C1803.3 981.7 1861.7 989.3 1890.8 993.2L1920 997L1920 1081L1890.8 1081C1861.7 1081 1803.3 1081 1745.2 1081C1687 1081 1629 1081 1570.8 1081C1512.7 1081 1454.3 1081 1396.2 1081C1338 1081 1280 1081 1221.8 1081C1163.7 1081 1105.3 1081 1047.2 1081C989 1081 931 1081 872.8 1081C814.7 1081 756.3 1081 698.2 1081C640 1081 582 1081 523.8 1081C465.7 1081 407.3 1081 349.2 1081C291 1081 233 1081 174.8 1081C116.7 1081 58.3 1081 29.2 1081L0 1081Z" fill="#096797"></path><path d="M0 1028L29.2 1026.3C58.3 1024.7 116.7 1021.3 174.8 1021C233 1020.7 291 1023.3 349.2 1026.3C407.3 1029.3 465.7 1032.7 523.8 1031.3C582 1030 640 1024 698.2 1021.7C756.3 1019.3 814.7 1020.7 872.8 1019.5C931 1018.3 989 1014.7 1047.2 1017.2C1105.3 1019.7 1163.7 1028.3 1221.8 1029.5C1280 1030.7 1338 1024.3 1396.2 1020.2C1454.3 1016 1512.7 1014 1570.8 1015.8C1629 1017.7 1687 1023.3 1745.2 1024.2C1803.3 1025 1861.7 1021 1890.8 1019L1920 1017L1920 1081L1890.8 1081C1861.7 1081 1803.3 1081 1745.2 1081C1687 1081 1629 1081 1570.8 1081C1512.7 1081 1454.3 1081 1396.2 1081C1338 1081 1280 1081 1221.8 1081C1163.7 1081 1105.3 1081 1047.2 1081C989 1081 931 1081 872.8 1081C814.7 1081 756.3 1081 698.2 1081C640 1081 582 1081 523.8 1081C465.7 1081 407.3 1081 349.2 1081C291 1081 233 1081 174.8 1081C116.7 1081 58.3 1081 29.2 1081L0 1081Z" fill="#005580"></path></svg>