<svg id="visual" viewBox="0 0 1920 100" width="1920" height="100" xmlns="http://www.w3.org/2000/svg" xmlns:xlink="http://www.w3.org/1999/xlink" version="1.1"><rect x="0" y="0" width="1920" height="100" fill="#ffffff"></rect><path d="M0 22L20 22.2C40 22.3 80 22.7 120 21.2C160 19.7 200 16.3 240 14C280 11.7 320 10.3 360 11.2C400 12 440 15 480 15C520 15 560 12 600 12C640 12 680 15 720 14.8C760 14.7 800 11.3 840 11.7C880 12 920 16 960 17.8C1000 19.7 1040 19.3 1080 18.7C1120 18 1160 17 1200 16C1240 15 1280 14 1320 13C1360 12 1400 11 1440 12.8C1480 14.7 1520 19.3 1560 19.2C1600 19 1640 14 1680 11.7C1720 9.3 1760 9.7 1800 11C1840 12.3 1880 14.7 1900 15.8L1920 17L1920 101L1900 101C1880 101 1840 101 1800 101C1760 101 1720 101 1680 101C1640 101 1600 101 1560 101C1520 101 1480 101 1440 101C1400 101 1360 101 1320 101C1280 101 1240 101 1200 101C1160 101 1120 101 1080 101C1040 101 1000 101 960 101C920 101 880 101 840 101C800 101 760 101 720 101C680 101 640 101 600 101C560 101 520 101 480 101C440 101 400 101 360 101C320 101 280 101 240 101C200 101 160 101 120 101C80 101 40 101 20 101L0 101Z" fill="#209fdf"></path><path d="M0 26L20 28.2C40 30.3 80 34.7 120 35.5C160 36.3 200 33.7 240 32.7C280 31.7 320 32.3 360 31.7C400 31 440 29 480 29.2C520 29.3 560 31.7 600 33.7C640 35.7 680 37.3 720 37.7C760 38 800 37 840 36.2C880 35.3 920 34.7 960 34.3C1000 34 1040 34 1080 33.2C1120 32.3 1160 30.7 1200 30.3C1240 30 1280 31 1320 31.3C1360 31.7 1400 31.3 1440 31.2C1480 31 1520 31 1560 32.2C1600 33.3 1640 35.7 1680 36.7C1720 37.7 1760 37.3 1800 36.8C1840 36.3 1880 35.7 1900 35.3L1920 35L1920 101L1900 101C1880 101 1840 101 1800 101C1760 101 1720 101 1680 101C1640 101 1600 101 1560 101C1520 101 1480 101 1440 101C1400 101 1360 101 1320 101C1280 101 1240 101 1200 101C1160 101 1120 101 1080 101C1040 101 1000 101 960 101C920 101 880 101 840 101C800 101 760 101 720 101C680 101 640 101 600 101C560 101 520 101 480 101C440 101 400 101 360 101C320 101 280 101 240 101C200 101 160 101 120 101C80 101 40 101 20 101L0 101Z" fill="#198cc6"></path><path d="M0 47L20 47.8C40 48.7 80 50.3 120 52C160 53.7 200 55.3 240 55.5C280 55.7 320 54.3 360 51.8C400 49.3 440 45.7 480 45.7C520 45.7 560 49.3 600 50.5C640 51.7 680 50.3 720 49.3C760 48.3 800 47.7 840 48.7C880 49.7 920 52.3 960 52.7C1000 53 1040 51 1080 50.5C1120 50 1160 51 1200 52.2C1240 53.3 1280 54.7 1320 53.7C1360 52.7 1400 49.3 1440 49C1480 48.7 1520 51.3 1560 50.8C1600 50.3 1640 46.7 1680 45.7C1720 44.7 1760 46.3 1800 46.3C1840 46.3 1880 44.7 1900 43.8L1920 43L1920 101L1900 101C1880 101 1840 101 1800 101C1760 101 1720 101 1680 101C1640 101 1600 101 1560 101C1520 101 1480 101 1440 101C1400 101 1360 101 1320 101C1280 101 1240 101 1200 101C1160 101 1120 101 1080 101C1040 101 1000 101 960 101C920 101 880 101 840 101C800 101 760 101 720 101C680 101 640 101 600 101C560 101 520 101 480 101C440 101 400 101 360 101C320 101 280 101 240 101C200 101 160 101 120 101C80 101 40 101 20 101L0 101Z" fill="#1279ae"></path><path d="M0 62L20 62.8C40 63.7 80 65.3 120 64.7C160 64 200 61 240 61.8C280 62.7 320 67.3 360 69.2C400 71 440 70 480 68.8C520 67.7 560 66.3 600 66.2C640 66 680 67 720 66.7C760 66.3 800 64.7 840 63.2C880 61.7 920 60.3 960 59.5C1000 58.7 1040 58.3 1080 59.3C1120 60.3 1160 62.7 1200 63.2C1240 63.7 1280 62.3 1320 61.2C1360 60 1400 59 1440 58.8C1480 58.7 1520 59.3 1560 61.5C1600 63.7 1640 67.3 1680 68.7C1720 70 1760 69 1800 66.8C1840 64.7 1880 61.3 1900 59.7L1920 58L1920 101L1900 101C1880 101 1840 101 1800 101C1760 101 1720 101 1680 101C1640 101 1600 101 1560 101C1520 101 1480 101 1440 101C1400 101 1360 101 1320 101C1280 101 1240 101 1200 101C1160 101 1120 101 1080 101C1040 101 1000 101 960 101C920 101 880 101 840 101C800 101 760 101 720 101C680 101 640 101 600 101C560 101 520 101 480 101C440 101 400 101 360 101C320 101 280 101 240 101C200 101 160 101 120 101C80 101 40 101 20 101L0 101Z" fill="#096797"></path><path d="M0 75L20 75.2C40 75.3 80 75.7 120 76.5C160 77.3 200 78.7 240 80.7C280 82.7 320 85.3 360 86.5C400 87.7 440 87.3 480 85.5C520 83.7 560 80.3 600 79.2C640 78 680 79 720 81C760 83 800 86 840 87.3C880 88.7 920 88.3 960 88.2C1000 88 1040 88 1080 85.8C1120 83.7 1160 79.3 1200 79C1240 78.7 1280 82.3 1320 82.7C1360 83 1400 80 1440 80.2C1480 80.3 1520 83.7 1560 83.8C1600 84 1640 81 1680 79.8C1720 78.7 1760 79.3 1800 81.2C1840 83 1880 86 1900 87.5L1920 89L1920 101L1900 101C1880 101 1840 101 1800 101C1760 101 1720 101 1680 101C1640 101 1600 101 1560 101C1520 101 1480 101 1440 101C1400 101 1360 101 1320 101C1280 101 1240 101 1200 101C1160 101 1120 101 1080 101C1040 101 1000 101 960 101C920 101 880 101 840 101C800 101 760 101 720 101C680 101 640 101 600 101C560 101 520 101 480 101C440 101 400 101 360 101C320 101 280 101 240 101C200 101 160 101 120 101C80 101 40 101 20 101L0 101Z" fill="#005580"></path></svg>