<svg id="visual" viewBox="0 0 1850 700" width="1850" height="700" xmlns="http://www.w3.org/2000/svg" xmlns:xlink="http://www.w3.org/1999/xlink" version="1.1"><rect x="0" y="0" width="1850" height="700" fill="#1d8fc9"></rect><path d="M0 50L80 50L80 79L161 79L161 4L241 4L241 87L322 87L322 14L402 14L402 94L483 94L483 33L563 33L563 63L643 63L643 42L724 42L724 89L804 89L804 98L885 98L885 66L965 66L965 31L1046 31L1046 47L1126 47L1126 57L1207 57L1207 29L1287 29L1287 69L1367 69L1367 6L1448 6L1448 102L1528 102L1528 65L1609 65L1609 14L1689 14L1689 6L1770 6L1770 33L1850 33L1850 35L1850 701L1850 701L1770 701L1770 701L1689 701L1689 701L1609 701L1609 701L1528 701L1528 701L1448 701L1448 701L1367 701L1367 701L1287 701L1287 701L1207 701L1207 701L1126 701L1126 701L1046 701L1046 701L965 701L965 701L885 701L885 701L804 701L804 701L724 701L724 701L643 701L643 701L563 701L563 701L483 701L483 701L402 701L402 701L322 701L322 701L241 701L241 701L161 701L161 701L80 701L80 701L0 701Z" fill="#1b84b9"></path><path d="M0 79L80 79L80 58L161 58L161 101L241 101L241 74L322 74L322 71L402 71L402 160L483 160L483 56L563 56L563 146L643 146L643 140L724 140L724 77L804 77L804 70L885 70L885 122L965 122L965 152L1046 152L1046 104L1126 104L1126 85L1207 85L1207 85L1287 85L1287 148L1367 148L1367 134L1448 134L1448 97L1528 97L1528 141L1609 141L1609 141L1689 141L1689 133L1770 133L1770 77L1850 77L1850 129L1850 701L1850 701L1770 701L1770 701L1689 701L1689 701L1609 701L1609 701L1528 701L1528 701L1448 701L1448 701L1367 701L1367 701L1287 701L1287 701L1207 701L1207 701L1126 701L1126 701L1046 701L1046 701L965 701L965 701L885 701L885 701L804 701L804 701L724 701L724 701L643 701L643 701L563 701L563 701L483 701L483 701L402 701L402 701L322 701L322 701L241 701L241 701L161 701L161 701L80 701L80 701L0 701Z" fill="#1980b4"></path><path d="M0 157L80 157L80 110L161 110L161 167L241 167L241 124L322 124L322 180L402 180L402 166L483 166L483 172L563 172L563 110L643 110L643 130L724 130L724 151L804 151L804 198L885 198L885 168L965 168L965 112L1046 112L1046 173L1126 173L1126 201L1207 201L1207 165L1287 165L1287 194L1367 194L1367 129L1448 129L1448 157L1528 157L1528 148L1609 148L1609 125L1689 125L1689 190L1770 190L1770 116L1850 116L1850 163L1850 701L1850 701L1770 701L1770 701L1689 701L1689 701L1609 701L1609 701L1528 701L1528 701L1448 701L1448 701L1367 701L1367 701L1287 701L1287 701L1207 701L1207 701L1126 701L1126 701L1046 701L1046 701L965 701L965 701L885 701L885 701L804 701L804 701L724 701L724 701L643 701L643 701L563 701L563 701L483 701L483 701L402 701L402 701L322 701L322 701L241 701L241 701L161 701L161 701L80 701L80 701L0 701Z" fill="#177bae"></path><path d="M0 173L80 173L80 227L161 227L161 164L241 164L241 244L322 244L322 238L402 238L402 177L483 177L483 185L563 185L563 166L643 166L643 221L724 221L724 267L804 267L804 172L885 172L885 251L965 251L965 191L1046 191L1046 218L1126 218L1126 237L1207 237L1207 187L1287 187L1287 168L1367 168L1367 202L1448 202L1448 202L1528 202L1528 180L1609 180L1609 207L1689 207L1689 207L1770 207L1770 200L1850 200L1850 263L1850 701L1850 701L1770 701L1770 701L1689 701L1689 701L1609 701L1609 701L1528 701L1528 701L1448 701L1448 701L1367 701L1367 701L1287 701L1287 701L1207 701L1207 701L1126 701L1126 701L1046 701L1046 701L965 701L965 701L885 701L885 701L804 701L804 701L724 701L724 701L643 701L643 701L563 701L563 701L483 701L483 701L402 701L402 701L322 701L322 701L241 701L241 701L161 701L161 701L80 701L80 701L0 701Z" fill="#1577a9"></path><path d="M0 218L80 218L80 278L161 278L161 256L241 256L241 279L322 279L322 258L402 258L402 293L483 293L483 304L563 304L563 285L643 285L643 268L724 268L724 228L804 228L804 305L885 305L885 225L965 225L965 256L1046 256L1046 302L1126 302L1126 299L1207 299L1207 240L1287 240L1287 264L1367 264L1367 242L1448 242L1448 270L1528 270L1528 269L1609 269L1609 302L1689 302L1689 292L1770 292L1770 218L1850 218L1850 216L1850 701L1850 701L1770 701L1770 701L1689 701L1689 701L1609 701L1609 701L1528 701L1528 701L1448 701L1448 701L1367 701L1367 701L1287 701L1287 701L1207 701L1207 701L1126 701L1126 701L1046 701L1046 701L965 701L965 701L885 701L885 701L804 701L804 701L724 701L724 701L643 701L643 701L563 701L563 701L483 701L483 701L402 701L402 701L322 701L322 701L241 701L241 701L161 701L161 701L80 701L80 701L0 701Z" fill="#1372a4"></path><path d="M0 371L80 371L80 353L161 353L161 336L241 336L241 301L322 301L322 282L402 282L402 376L483 376L483 313L563 313L563 335L643 335L643 295L724 295L724 327L804 327L804 278L885 278L885 324L965 324L965 375L1046 375L1046 270L1126 270L1126 350L1207 350L1207 343L1287 343L1287 325L1367 325L1367 342L1448 342L1448 278L1528 278L1528 305L1609 305L1609 355L1689 355L1689 304L1770 304L1770 291L1850 291L1850 348L1850 701L1850 701L1770 701L1770 701L1689 701L1689 701L1609 701L1609 701L1528 701L1528 701L1448 701L1448 701L1367 701L1367 701L1287 701L1287 701L1207 701L1207 701L1126 701L1126 701L1046 701L1046 701L965 701L965 701L885 701L885 701L804 701L804 701L724 701L724 701L643 701L643 701L563 701L563 701L483 701L483 701L402 701L402 701L322 701L322 701L241 701L241 701L161 701L161 701L80 701L80 701L0 701Z" fill="#106e9f"></path><path d="M0 365L80 365L80 366L161 366L161 406L241 406L241 341L322 341L322 326L402 326L402 362L483 362L483 324L563 324L563 330L643 330L643 421L724 421L724 394L804 394L804 356L885 356L885 346L965 346L965 400L1046 400L1046 401L1126 401L1126 330L1207 330L1207 415L1287 415L1287 426L1367 426L1367 406L1448 406L1448 395L1528 395L1528 380L1609 380L1609 385L1689 385L1689 325L1770 325L1770 422L1850 422L1850 397L1850 701L1850 701L1770 701L1770 701L1689 701L1689 701L1609 701L1609 701L1528 701L1528 701L1448 701L1448 701L1367 701L1367 701L1287 701L1287 701L1207 701L1207 701L1126 701L1126 701L1046 701L1046 701L965 701L965 701L885 701L885 701L804 701L804 701L724 701L724 701L643 701L643 701L563 701L563 701L483 701L483 701L402 701L402 701L322 701L322 701L241 701L241 701L161 701L161 701L80 701L80 701L0 701Z" fill="#0e6a99"></path><path d="M0 395L80 395L80 422L161 422L161 452L241 452L241 456L322 456L322 414L402 414L402 456L483 456L483 415L563 415L563 405L643 405L643 402L724 402L724 402L804 402L804 399L885 399L885 456L965 456L965 459L1046 459L1046 469L1126 469L1126 455L1207 455L1207 432L1287 432L1287 475L1367 475L1367 392L1448 392L1448 396L1528 396L1528 459L1609 459L1609 459L1689 459L1689 380L1770 380L1770 448L1850 448L1850 473L1850 701L1850 701L1770 701L1770 701L1689 701L1689 701L1609 701L1609 701L1528 701L1528 701L1448 701L1448 701L1367 701L1367 701L1287 701L1287 701L1207 701L1207 701L1126 701L1126 701L1046 701L1046 701L965 701L965 701L885 701L885 701L804 701L804 701L724 701L724 701L643 701L643 701L563 701L563 701L483 701L483 701L402 701L402 701L322 701L322 701L241 701L241 701L161 701L161 701L80 701L80 701L0 701Z" fill="#0b6694"></path><path d="M0 514L80 514L80 439L161 439L161 493L241 493L241 525L322 525L322 468L402 468L402 495L483 495L483 529L563 529L563 523L643 523L643 454L724 454L724 491L804 491L804 506L885 506L885 503L965 503L965 486L1046 486L1046 517L1126 517L1126 458L1207 458L1207 513L1287 513L1287 518L1367 518L1367 461L1448 461L1448 528L1528 528L1528 470L1609 470L1609 523L1689 523L1689 492L1770 492L1770 442L1850 442L1850 446L1850 701L1850 701L1770 701L1770 701L1689 701L1689 701L1609 701L1609 701L1528 701L1528 701L1448 701L1448 701L1367 701L1367 701L1287 701L1287 701L1207 701L1207 701L1126 701L1126 701L1046 701L1046 701L965 701L965 701L885 701L885 701L804 701L804 701L724 701L724 701L643 701L643 701L563 701L563 701L483 701L483 701L402 701L402 701L322 701L322 701L241 701L241 701L161 701L161 701L80 701L80 701L0 701Z" fill="#08618f"></path><path d="M0 524L80 524L80 503L161 503L161 492L241 492L241 488L322 488L322 520L402 520L402 587L483 587L483 493L563 493L563 523L643 523L643 535L724 535L724 530L804 530L804 537L885 537L885 591L965 591L965 491L1046 491L1046 513L1126 513L1126 585L1207 585L1207 486L1287 486L1287 501L1367 501L1367 561L1448 561L1448 581L1528 581L1528 550L1609 550L1609 525L1689 525L1689 518L1770 518L1770 492L1850 492L1850 519L1850 701L1850 701L1770 701L1770 701L1689 701L1689 701L1609 701L1609 701L1528 701L1528 701L1448 701L1448 701L1367 701L1367 701L1287 701L1287 701L1207 701L1207 701L1126 701L1126 701L1046 701L1046 701L965 701L965 701L885 701L885 701L804 701L804 701L724 701L724 701L643 701L643 701L563 701L563 701L483 701L483 701L402 701L402 701L322 701L322 701L241 701L241 701L161 701L161 701L80 701L80 701L0 701Z" fill="#055d8a"></path><path d="M0 584L80 584L80 598L161 598L161 549L241 549L241 601L322 601L322 550L402 550L402 557L483 557L483 545L563 545L563 581L643 581L643 549L724 549L724 600L804 600L804 592L885 592L885 566L965 566L965 582L1046 582L1046 629L1126 629L1126 588L1207 588L1207 588L1287 588L1287 606L1367 606L1367 571L1448 571L1448 618L1528 618L1528 592L1609 592L1609 595L1689 595L1689 612L1770 612L1770 642L1850 642L1850 596L1850 701L1850 701L1770 701L1770 701L1689 701L1689 701L1609 701L1609 701L1528 701L1528 701L1448 701L1448 701L1367 701L1367 701L1287 701L1287 701L1207 701L1207 701L1126 701L1126 701L1046 701L1046 701L965 701L965 701L885 701L885 701L804 701L804 701L724 701L724 701L643 701L643 701L563 701L563 701L483 701L483 701L402 701L402 701L322 701L322 701L241 701L241 701L161 701L161 701L80 701L80 701L0 701Z" fill="#025985"></path><path d="M0 687L80 687L80 595L161 595L161 627L241 627L241 658L322 658L322 620L402 620L402 597L483 597L483 676L563 676L563 663L643 663L643 696L724 696L724 679L804 679L804 632L885 632L885 663L965 663L965 681L1046 681L1046 603L1126 603L1126 671L1207 671L1207 600L1287 600L1287 675L1367 675L1367 641L1448 641L1448 651L1528 651L1528 671L1609 671L1609 637L1689 637L1689 641L1770 641L1770 601L1850 601L1850 665L1850 701L1850 701L1770 701L1770 701L1689 701L1689 701L1609 701L1609 701L1528 701L1528 701L1448 701L1448 701L1367 701L1367 701L1287 701L1287 701L1207 701L1207 701L1126 701L1126 701L1046 701L1046 701L965 701L965 701L885 701L885 701L804 701L804 701L724 701L724 701L643 701L643 701L563 701L563 701L483 701L483 701L402 701L402 701L322 701L322 701L241 701L241 701L161 701L161 701L80 701L80 701L0 701Z" fill="#005580"></path></svg>