<svg id="visual" viewBox="0 0 1920 300" width="1920" height="300" xmlns="http://www.w3.org/2000/svg" xmlns:xlink="http://www.w3.org/1999/xlink" version="1.1"><g stroke-width="1" stroke-linejoin="bevel"><path d="M968 176L880 169L962 232Z" fill="#005eb6" stroke="#005eb6"></path><path d="M880 169L838 225L962 232Z" fill="#0074c4" stroke="#0074c4"></path><path d="M852 300L962 300L962 232Z" fill="#0047a6" stroke="#0047a6"></path><path d="M1081 248L1036 138L968 176Z" fill="#001580" stroke="#001580"></path><path d="M838 225L852 300L962 232Z" fill="#0074c4" stroke="#0074c4"></path><path d="M1081 248L968 176L962 232Z" fill="#003094" stroke="#003094"></path><path d="M968 176L952 61L880 169Z" fill="#001580" stroke="#001580"></path><path d="M745 157L789 240L838 225Z" fill="#00238a" stroke="#00238a"></path><path d="M838 225L789 240L852 300Z" fill="#0053ae" stroke="#0053ae"></path><path d="M1036 138L952 61L968 176Z" fill="#0069bd" stroke="#0069bd"></path><path d="M880 169L745 157L838 225Z" fill="#005eb6" stroke="#005eb6"></path><path d="M952 61L854 48L880 169Z" fill="#0069bd" stroke="#0069bd"></path><path d="M1072 300L1081 248L962 232Z" fill="#001580" stroke="#001580"></path><path d="M789 240L787 300L852 300Z" fill="#003094" stroke="#003094"></path><path d="M1133 101L1064 88L1036 138Z" fill="#007fca" stroke="#007fca"></path><path d="M1036 138L1064 88L952 61Z" fill="#0069bd" stroke="#0069bd"></path><path d="M962 300L1072 300L962 232Z" fill="#003094" stroke="#003094"></path><path d="M793 62L745 157L880 169Z" fill="#0047a6" stroke="#0047a6"></path><path d="M789 240L686 248L787 300Z" fill="#001580" stroke="#001580"></path><path d="M854 48L793 62L880 169Z" fill="#007fca" stroke="#007fca"></path><path d="M1053 0L934 0L952 61Z" fill="#008acf" stroke="#008acf"></path><path d="M952 61L934 0L854 48Z" fill="#001580" stroke="#001580"></path><path d="M854 48L851 0L793 62Z" fill="#007fca" stroke="#007fca"></path><path d="M934 0L851 0L854 48Z" fill="#0047a6" stroke="#0047a6"></path><path d="M1157 147L1133 101L1036 138Z" fill="#003c9d" stroke="#003c9d"></path><path d="M1064 88L1053 0L952 61Z" fill="#008acf" stroke="#008acf"></path><path d="M1157 147L1036 138L1081 248Z" fill="#003094" stroke="#003094"></path><path d="M1163 0L1053 0L1064 88Z" fill="#0069bd" stroke="#0069bd"></path><path d="M651 123L686 248L745 157Z" fill="#001580" stroke="#001580"></path><path d="M745 157L686 248L789 240Z" fill="#005eb6" stroke="#005eb6"></path><path d="M1176 214L1157 147L1081 248Z" fill="#0053ae" stroke="#0053ae"></path><path d="M1072 300L1142 300L1081 248Z" fill="#0074c4" stroke="#0074c4"></path><path d="M1142 300L1176 214L1081 248Z" fill="#003094" stroke="#003094"></path><path d="M851 0L762 0L793 62Z" fill="#001580" stroke="#001580"></path><path d="M793 62L681 87L745 157Z" fill="#0074c4" stroke="#0074c4"></path><path d="M762 0L681 87L793 62Z" fill="#008acf" stroke="#008acf"></path><path d="M592 300L662 300L574 235Z" fill="#0053ae" stroke="#0053ae"></path><path d="M686 248L662 300L787 300Z" fill="#0053ae" stroke="#0053ae"></path><path d="M681 87L651 123L745 157Z" fill="#0069bd" stroke="#0069bd"></path><path d="M1224 61L1133 101L1157 147Z" fill="#005eb6" stroke="#005eb6"></path><path d="M1224 61L1163 0L1133 101Z" fill="#0053ae" stroke="#0053ae"></path><path d="M1133 101L1163 0L1064 88Z" fill="#005eb6" stroke="#005eb6"></path><path d="M1234 300L1238 202L1176 214Z" fill="#0069bd" stroke="#0069bd"></path><path d="M1176 214L1238 202L1157 147Z" fill="#00238a" stroke="#00238a"></path><path d="M762 0L672 0L681 87Z" fill="#0069bd" stroke="#0069bd"></path><path d="M567 92L597 133L651 123Z" fill="#00238a" stroke="#00238a"></path><path d="M1142 300L1234 300L1176 214Z" fill="#0047a6" stroke="#0047a6"></path><path d="M567 92L651 123L681 87Z" fill="#007fca" stroke="#007fca"></path><path d="M651 123L597 133L686 248Z" fill="#0069bd" stroke="#0069bd"></path><path d="M1254 161L1224 61L1157 147Z" fill="#001580" stroke="#001580"></path><path d="M1327 245L1254 161L1238 202Z" fill="#003c9d" stroke="#003c9d"></path><path d="M1238 202L1254 161L1157 147Z" fill="#00238a" stroke="#00238a"></path><path d="M574 235L662 300L686 248Z" fill="#003094" stroke="#003094"></path><path d="M597 133L574 235L686 248Z" fill="#007fca" stroke="#007fca"></path><path d="M586 0L567 92L681 87Z" fill="#0074c4" stroke="#0074c4"></path><path d="M469 153L485 225L574 235Z" fill="#005eb6" stroke="#005eb6"></path><path d="M1364 50L1242 0L1224 61Z" fill="#008acf" stroke="#008acf"></path><path d="M1224 61L1242 0L1163 0Z" fill="#008acf" stroke="#008acf"></path><path d="M672 0L586 0L681 87Z" fill="#003c9d" stroke="#003c9d"></path><path d="M1234 300L1327 245L1238 202Z" fill="#00238a" stroke="#00238a"></path><path d="M1254 161L1364 50L1224 61Z" fill="#007fca" stroke="#007fca"></path><path d="M1234 300L1346 300L1327 245Z" fill="#0074c4" stroke="#0074c4"></path><path d="M469 153L574 235L597 133Z" fill="#00238a" stroke="#00238a"></path><path d="M574 235L482 300L592 300Z" fill="#001580" stroke="#001580"></path><path d="M469 153L597 133L567 92Z" fill="#00238a" stroke="#00238a"></path><path d="M586 0L502 70L567 92Z" fill="#003c9d" stroke="#003c9d"></path><path d="M1416 173L1369 145L1327 245Z" fill="#008acf" stroke="#008acf"></path><path d="M1327 245L1369 145L1254 161Z" fill="#003c9d" stroke="#003c9d"></path><path d="M485 225L482 300L574 235Z" fill="#005eb6" stroke="#005eb6"></path><path d="M502 70L469 153L567 92Z" fill="#0069bd" stroke="#0069bd"></path><path d="M485 225L403 228L482 300Z" fill="#003094" stroke="#003094"></path><path d="M1369 145L1364 50L1254 161Z" fill="#005eb6" stroke="#005eb6"></path><path d="M1417 0L1364 0L1364 50Z" fill="#0069bd" stroke="#0069bd"></path><path d="M1364 50L1364 0L1242 0Z" fill="#001580" stroke="#001580"></path><path d="M1430 233L1416 173L1327 245Z" fill="#007fca" stroke="#007fca"></path><path d="M1369 145L1463 54L1364 50Z" fill="#008acf" stroke="#008acf"></path><path d="M586 0L464 0L502 70Z" fill="#003094" stroke="#003094"></path><path d="M502 70L410 87L469 153Z" fill="#003094" stroke="#003094"></path><path d="M1346 300L1430 233L1327 245Z" fill="#00238a" stroke="#00238a"></path><path d="M374 170L403 228L469 153Z" fill="#003c9d" stroke="#003c9d"></path><path d="M469 153L403 228L485 225Z" fill="#00238a" stroke="#00238a"></path><path d="M464 0L410 87L502 70Z" fill="#005eb6" stroke="#005eb6"></path><path d="M403 228L403 300L482 300Z" fill="#008acf" stroke="#008acf"></path><path d="M1346 300L1445 300L1430 233Z" fill="#003c9d" stroke="#003c9d"></path><path d="M1463 54L1417 0L1364 50Z" fill="#003094" stroke="#003094"></path><path d="M1463 54L1369 145L1416 173Z" fill="#007fca" stroke="#007fca"></path><path d="M1463 54L1416 173L1540 152Z" fill="#003c9d" stroke="#003c9d"></path><path d="M410 87L374 170L469 153Z" fill="#003c9d" stroke="#003c9d"></path><path d="M403 228L291 300L403 300Z" fill="#0074c4" stroke="#0074c4"></path><path d="M1531 215L1416 173L1430 233Z" fill="#0074c4" stroke="#0074c4"></path><path d="M464 0L360 0L410 87Z" fill="#001580" stroke="#001580"></path><path d="M300 61L306 164L374 170Z" fill="#0047a6" stroke="#0047a6"></path><path d="M1445 300L1517 300L1430 233Z" fill="#0069bd" stroke="#0069bd"></path><path d="M1517 300L1531 215L1430 233Z" fill="#00238a" stroke="#00238a"></path><path d="M300 61L374 170L410 87Z" fill="#005eb6" stroke="#005eb6"></path><path d="M374 170L286 209L403 228Z" fill="#00238a" stroke="#00238a"></path><path d="M1531 215L1540 152L1416 173Z" fill="#003094" stroke="#003094"></path><path d="M1540 152L1536 77L1463 54Z" fill="#003094" stroke="#003094"></path><path d="M1463 54L1562 0L1417 0Z" fill="#0047a6" stroke="#0047a6"></path><path d="M195 231L286 209L170 160Z" fill="#0069bd" stroke="#0069bd"></path><path d="M306 164L286 209L374 170Z" fill="#0047a6" stroke="#0047a6"></path><path d="M360 0L300 61L410 87Z" fill="#007fca" stroke="#007fca"></path><path d="M286 209L291 300L403 228Z" fill="#00238a" stroke="#00238a"></path><path d="M360 0L285 0L300 61Z" fill="#008acf" stroke="#008acf"></path><path d="M195 231L213 300L286 209Z" fill="#003c9d" stroke="#003c9d"></path><path d="M1611 145L1536 77L1540 152Z" fill="#0053ae" stroke="#0053ae"></path><path d="M1623 0L1562 0L1536 77Z" fill="#005eb6" stroke="#005eb6"></path><path d="M1536 77L1562 0L1463 54Z" fill="#0074c4" stroke="#0074c4"></path><path d="M1642 251L1611 145L1531 215Z" fill="#0053ae" stroke="#0053ae"></path><path d="M1531 215L1611 145L1540 152Z" fill="#007fca" stroke="#007fca"></path><path d="M1517 300L1620 300L1531 215Z" fill="#003094" stroke="#003094"></path><path d="M286 209L306 164L170 160Z" fill="#0053ae" stroke="#0053ae"></path><path d="M286 209L213 300L291 300Z" fill="#007fca" stroke="#007fca"></path><path d="M1620 300L1642 251L1531 215Z" fill="#0074c4" stroke="#0074c4"></path><path d="M184 100L306 164L300 61Z" fill="#008acf" stroke="#008acf"></path><path d="M1655 86L1623 0L1536 77Z" fill="#0047a6" stroke="#0047a6"></path><path d="M1655 86L1536 77L1611 145Z" fill="#0069bd" stroke="#0069bd"></path><path d="M1713 148L1655 86L1611 145Z" fill="#0053ae" stroke="#0053ae"></path><path d="M187 0L184 100L300 61Z" fill="#0074c4" stroke="#0074c4"></path><path d="M184 100L170 160L306 164Z" fill="#007fca" stroke="#007fca"></path><path d="M195 231L71 300L213 300Z" fill="#003094" stroke="#003094"></path><path d="M285 0L187 0L300 61Z" fill="#003094" stroke="#003094"></path><path d="M70 171L120 211L170 160Z" fill="#0047a6" stroke="#0047a6"></path><path d="M1731 218L1713 148L1642 251Z" fill="#00238a" stroke="#00238a"></path><path d="M1642 251L1713 148L1611 145Z" fill="#00238a" stroke="#00238a"></path><path d="M1655 86L1720 0L1623 0Z" fill="#001580" stroke="#001580"></path><path d="M1713 148L1712 101L1655 86Z" fill="#001580" stroke="#001580"></path><path d="M109 65L170 160L184 100Z" fill="#00238a" stroke="#00238a"></path><path d="M170 160L120 211L195 231Z" fill="#005eb6" stroke="#005eb6"></path><path d="M1736 300L1731 218L1642 251Z" fill="#0047a6" stroke="#0047a6"></path><path d="M1842 128L1804 60L1712 101Z" fill="#005eb6" stroke="#005eb6"></path><path d="M1620 300L1736 300L1642 251Z" fill="#003094" stroke="#003094"></path><path d="M1712 101L1720 0L1655 86Z" fill="#00238a" stroke="#00238a"></path><path d="M1804 60L1720 0L1712 101Z" fill="#0047a6" stroke="#0047a6"></path><path d="M1813 215L1713 148L1731 218Z" fill="#003c9d" stroke="#003c9d"></path><path d="M187 0L109 65L184 100Z" fill="#0074c4" stroke="#0074c4"></path><path d="M187 0L100 0L109 65Z" fill="#00238a" stroke="#00238a"></path><path d="M109 65L70 171L170 160Z" fill="#0069bd" stroke="#0069bd"></path><path d="M0 208L70 171L0 139Z" fill="#003c9d" stroke="#003c9d"></path><path d="M120 211L71 300L195 231Z" fill="#0053ae" stroke="#0053ae"></path><path d="M0 208L71 300L120 211Z" fill="#0053ae" stroke="#0053ae"></path><path d="M1736 300L1813 215L1731 218Z" fill="#008acf" stroke="#008acf"></path><path d="M1842 128L1712 101L1713 148Z" fill="#0053ae" stroke="#0053ae"></path><path d="M1736 300L1826 300L1813 215Z" fill="#0074c4" stroke="#0074c4"></path><path d="M1813 215L1842 128L1713 148Z" fill="#008acf" stroke="#008acf"></path><path d="M70 171L0 208L120 211Z" fill="#003c9d" stroke="#003c9d"></path><path d="M0 139L70 171L109 65Z" fill="#0053ae" stroke="#0053ae"></path><path d="M1920 221L1842 128L1813 215Z" fill="#0074c4" stroke="#0074c4"></path><path d="M0 59L0 139L109 65Z" fill="#00238a" stroke="#00238a"></path><path d="M1920 95L1825 0L1804 60Z" fill="#005eb6" stroke="#005eb6"></path><path d="M1804 60L1825 0L1720 0Z" fill="#007fca" stroke="#007fca"></path><path d="M0 208L0 300L71 300Z" fill="#005eb6" stroke="#005eb6"></path><path d="M100 0L0 59L109 65Z" fill="#001580" stroke="#001580"></path><path d="M100 0L0 0L0 59Z" fill="#003c9d" stroke="#003c9d"></path><path d="M1826 300L1920 221L1813 215Z" fill="#0069bd" stroke="#0069bd"></path><path d="M1842 128L1920 95L1804 60Z" fill="#0069bd" stroke="#0069bd"></path><path d="M1920 221L1920 149L1842 128Z" fill="#001580" stroke="#001580"></path><path d="M1826 300L1920 300L1920 221Z" fill="#008acf" stroke="#008acf"></path><path d="M1920 149L1920 95L1842 128Z" fill="#003c9d" stroke="#003c9d"></path><path d="M1920 95L1920 0L1825 0Z" fill="#008acf" stroke="#008acf"></path></g></svg>