<svg id="visual" viewBox="0 0 1920 300" width="1920" height="300" xmlns="http://www.w3.org/2000/svg" xmlns:xlink="http://www.w3.org/1999/xlink" version="1.1"><g stroke-width="1" stroke-linejoin="bevel"><path d="M952 160L951 57L880 135Z" fill="#0a6fa3" stroke="#0a6fa3"></path><path d="M951 57L861 54L880 135Z" fill="#086a9c" stroke="#086a9c"></path><path d="M951 57L948 0L861 54Z" fill="#0a6fa3" stroke="#0a6fa3"></path><path d="M952 160L1040 136L951 57Z" fill="#0a6fa3" stroke="#0a6fa3"></path><path d="M951 57L1071 0L948 0Z" fill="#0a6fa3" stroke="#0a6fa3"></path><path d="M948 0L850 0L861 54Z" fill="#1080b8" stroke="#1080b8"></path><path d="M853 223L979 235L952 160Z" fill="#0c74aa" stroke="#0c74aa"></path><path d="M952 160L979 235L1040 136Z" fill="#148bc7" stroke="#148bc7"></path><path d="M1040 136L1063 79L951 57Z" fill="#056495" stroke="#056495"></path><path d="M784 203L853 223L880 135Z" fill="#005580" stroke="#005580"></path><path d="M880 135L853 223L952 160Z" fill="#0e7ab1" stroke="#0e7ab1"></path><path d="M783 87L880 135L861 54Z" fill="#035f8e" stroke="#035f8e"></path><path d="M850 0L783 87L861 54Z" fill="#0a6fa3" stroke="#0a6fa3"></path><path d="M783 87L767 129L880 135Z" fill="#1080b8" stroke="#1080b8"></path><path d="M767 129L784 203L880 135Z" fill="#025a87" stroke="#025a87"></path><path d="M1063 79L1071 0L951 57Z" fill="#0a6fa3" stroke="#0a6fa3"></path><path d="M870 300L942 300L853 223Z" fill="#1285c0" stroke="#1285c0"></path><path d="M853 223L942 300L979 235Z" fill="#025a87" stroke="#025a87"></path><path d="M979 235L1069 245L1040 136Z" fill="#035f8e" stroke="#035f8e"></path><path d="M1055 300L1069 245L979 235Z" fill="#035f8e" stroke="#035f8e"></path><path d="M1040 136L1170 155L1063 79Z" fill="#148bc7" stroke="#148bc7"></path><path d="M1063 79L1132 0L1071 0Z" fill="#025a87" stroke="#025a87"></path><path d="M850 0L765 0L783 87Z" fill="#005580" stroke="#005580"></path><path d="M783 87L672 59L767 129Z" fill="#086a9c" stroke="#086a9c"></path><path d="M770 300L870 300L853 223Z" fill="#1080b8" stroke="#1080b8"></path><path d="M942 300L1055 300L979 235Z" fill="#086a9c" stroke="#086a9c"></path><path d="M1133 243L1040 136L1069 245Z" fill="#148bc7" stroke="#148bc7"></path><path d="M1173 66L1132 0L1063 79Z" fill="#1080b8" stroke="#1080b8"></path><path d="M1149 300L1133 243L1069 245Z" fill="#025a87" stroke="#025a87"></path><path d="M1133 243L1170 155L1040 136Z" fill="#0c74aa" stroke="#0c74aa"></path><path d="M1170 155L1173 66L1063 79Z" fill="#148bc7" stroke="#148bc7"></path><path d="M665 222L770 300L784 203Z" fill="#086a9c" stroke="#086a9c"></path><path d="M784 203L770 300L853 223Z" fill="#1080b8" stroke="#1080b8"></path><path d="M765 0L672 59L783 87Z" fill="#1080b8" stroke="#1080b8"></path><path d="M767 129L665 222L784 203Z" fill="#005580" stroke="#005580"></path><path d="M672 59L658 139L767 129Z" fill="#0c74aa" stroke="#0c74aa"></path><path d="M658 139L665 222L767 129Z" fill="#086a9c" stroke="#086a9c"></path><path d="M765 0L660 0L672 59Z" fill="#035f8e" stroke="#035f8e"></path><path d="M672 59L586 72L658 139Z" fill="#035f8e" stroke="#035f8e"></path><path d="M1055 300L1149 300L1069 245Z" fill="#005580" stroke="#005580"></path><path d="M1267 240L1252 131L1170 155Z" fill="#035f8e" stroke="#035f8e"></path><path d="M665 222L685 300L770 300Z" fill="#0e7ab1" stroke="#0e7ab1"></path><path d="M1252 131L1244 90L1170 155Z" fill="#148bc7" stroke="#148bc7"></path><path d="M1170 155L1244 90L1173 66Z" fill="#0e7ab1" stroke="#0e7ab1"></path><path d="M1173 66L1234 0L1132 0Z" fill="#025a87" stroke="#025a87"></path><path d="M1267 240L1170 155L1133 243Z" fill="#025a87" stroke="#025a87"></path><path d="M1244 90L1234 0L1173 66Z" fill="#0a6fa3" stroke="#0a6fa3"></path><path d="M1341 58L1234 0L1244 90Z" fill="#1285c0" stroke="#1285c0"></path><path d="M660 0L586 72L672 59Z" fill="#035f8e" stroke="#035f8e"></path><path d="M658 139L568 148L665 222Z" fill="#0e7ab1" stroke="#0e7ab1"></path><path d="M665 222L584 300L685 300Z" fill="#148bc7" stroke="#148bc7"></path><path d="M1238 300L1267 240L1133 243Z" fill="#025a87" stroke="#025a87"></path><path d="M1252 131L1341 58L1244 90Z" fill="#005580" stroke="#005580"></path><path d="M1149 300L1238 300L1133 243Z" fill="#0c74aa" stroke="#0c74aa"></path><path d="M660 0L583 0L586 72Z" fill="#1285c0" stroke="#1285c0"></path><path d="M477 166L568 148L468 53Z" fill="#0c74aa" stroke="#0c74aa"></path><path d="M586 72L568 148L658 139Z" fill="#0e7ab1" stroke="#0e7ab1"></path><path d="M477 166L556 226L568 148Z" fill="#025a87" stroke="#025a87"></path><path d="M568 148L556 226L665 222Z" fill="#086a9c" stroke="#086a9c"></path><path d="M556 226L584 300L665 222Z" fill="#1285c0" stroke="#1285c0"></path><path d="M1344 153L1341 58L1252 131Z" fill="#0c74aa" stroke="#0c74aa"></path><path d="M1267 240L1344 153L1252 131Z" fill="#0a6fa3" stroke="#0a6fa3"></path><path d="M1362 242L1344 153L1267 240Z" fill="#035f8e" stroke="#035f8e"></path><path d="M1341 58L1347 0L1234 0Z" fill="#035f8e" stroke="#035f8e"></path><path d="M1455 54L1347 0L1341 58Z" fill="#148bc7" stroke="#148bc7"></path><path d="M1238 300L1329 300L1267 240Z" fill="#1285c0" stroke="#1285c0"></path><path d="M583 0L491 0L586 72Z" fill="#025a87" stroke="#025a87"></path><path d="M1329 300L1362 242L1267 240Z" fill="#148bc7" stroke="#148bc7"></path><path d="M1344 153L1441 136L1341 58Z" fill="#0e7ab1" stroke="#0e7ab1"></path><path d="M468 53L568 148L586 72Z" fill="#056495" stroke="#056495"></path><path d="M556 226L474 300L584 300Z" fill="#056495" stroke="#056495"></path><path d="M491 0L468 53L586 72Z" fill="#005580" stroke="#005580"></path><path d="M386 165L474 232L477 166Z" fill="#005580" stroke="#005580"></path><path d="M477 166L474 232L556 226Z" fill="#035f8e" stroke="#035f8e"></path><path d="M395 300L474 300L474 232Z" fill="#0a6fa3" stroke="#0a6fa3"></path><path d="M474 232L474 300L556 226Z" fill="#086a9c" stroke="#086a9c"></path><path d="M1449 233L1441 136L1362 242Z" fill="#0e7ab1" stroke="#0e7ab1"></path><path d="M1362 242L1441 136L1344 153Z" fill="#0a6fa3" stroke="#0a6fa3"></path><path d="M1441 136L1455 54L1341 58Z" fill="#0c74aa" stroke="#0c74aa"></path><path d="M1440 300L1449 233L1362 242Z" fill="#086a9c" stroke="#086a9c"></path><path d="M1536 68L1523 0L1455 54Z" fill="#1285c0" stroke="#1285c0"></path><path d="M1523 0L1458 0L1455 54Z" fill="#086a9c" stroke="#086a9c"></path><path d="M1455 54L1458 0L1347 0Z" fill="#148bc7" stroke="#148bc7"></path><path d="M491 0L390 54L468 53Z" fill="#148bc7" stroke="#148bc7"></path><path d="M468 53L386 165L477 166Z" fill="#005580" stroke="#005580"></path><path d="M1329 300L1440 300L1362 242Z" fill="#0a6fa3" stroke="#0a6fa3"></path><path d="M390 54L386 165L468 53Z" fill="#1080b8" stroke="#1080b8"></path><path d="M290 230L378 228L386 165Z" fill="#005580" stroke="#005580"></path><path d="M386 165L378 228L474 232Z" fill="#086a9c" stroke="#086a9c"></path><path d="M378 228L395 300L474 232Z" fill="#0a6fa3" stroke="#0a6fa3"></path><path d="M491 0L363 0L390 54Z" fill="#0e7ab1" stroke="#0e7ab1"></path><path d="M390 54L285 146L386 165Z" fill="#035f8e" stroke="#035f8e"></path><path d="M1536 68L1455 54L1441 136Z" fill="#035f8e" stroke="#035f8e"></path><path d="M1536 68L1441 136L1553 134Z" fill="#086a9c" stroke="#086a9c"></path><path d="M1523 241L1441 136L1449 233Z" fill="#148bc7" stroke="#148bc7"></path><path d="M1516 300L1523 241L1449 233Z" fill="#0e7ab1" stroke="#0e7ab1"></path><path d="M1440 300L1516 300L1449 233Z" fill="#086a9c" stroke="#086a9c"></path><path d="M1523 241L1553 134L1441 136Z" fill="#035f8e" stroke="#035f8e"></path><path d="M1536 68L1615 0L1523 0Z" fill="#005580" stroke="#005580"></path><path d="M1620 242L1553 134L1523 241Z" fill="#086a9c" stroke="#086a9c"></path><path d="M278 82L285 146L390 54Z" fill="#056495" stroke="#056495"></path><path d="M378 228L280 300L395 300Z" fill="#056495" stroke="#056495"></path><path d="M363 0L278 82L390 54Z" fill="#056495" stroke="#056495"></path><path d="M285 146L290 230L386 165Z" fill="#0e7ab1" stroke="#0e7ab1"></path><path d="M290 0L278 82L363 0Z" fill="#0e7ab1" stroke="#0e7ab1"></path><path d="M176 300L280 300L290 230Z" fill="#1080b8" stroke="#1080b8"></path><path d="M213 153L290 230L285 146Z" fill="#056495" stroke="#056495"></path><path d="M290 230L280 300L378 228Z" fill="#025a87" stroke="#025a87"></path><path d="M1642 89L1536 68L1553 134Z" fill="#086a9c" stroke="#086a9c"></path><path d="M1642 89L1615 0L1536 68Z" fill="#0e7ab1" stroke="#0e7ab1"></path><path d="M1516 300L1620 242L1523 241Z" fill="#005580" stroke="#005580"></path><path d="M1651 148L1642 89L1553 134Z" fill="#025a87" stroke="#025a87"></path><path d="M278 82L213 153L285 146Z" fill="#148bc7" stroke="#148bc7"></path><path d="M212 55L213 153L278 82Z" fill="#0a6fa3" stroke="#0a6fa3"></path><path d="M290 0L212 55L278 82Z" fill="#148bc7" stroke="#148bc7"></path><path d="M1620 242L1651 148L1553 134Z" fill="#005580" stroke="#005580"></path><path d="M290 0L205 0L212 55Z" fill="#005580" stroke="#005580"></path><path d="M113 152L174 211L213 153Z" fill="#0e7ab1" stroke="#0e7ab1"></path><path d="M1516 300L1639 300L1620 242Z" fill="#086a9c" stroke="#086a9c"></path><path d="M1620 242L1707 223L1651 148Z" fill="#1080b8" stroke="#1080b8"></path><path d="M113 152L213 153L212 55Z" fill="#025a87" stroke="#025a87"></path><path d="M213 153L174 211L290 230Z" fill="#1285c0" stroke="#1285c0"></path><path d="M174 211L176 300L290 230Z" fill="#086a9c" stroke="#086a9c"></path><path d="M1639 300L1707 223L1620 242Z" fill="#1285c0" stroke="#1285c0"></path><path d="M1724 82L1709 0L1642 89Z" fill="#1285c0" stroke="#1285c0"></path><path d="M1642 89L1709 0L1615 0Z" fill="#056495" stroke="#056495"></path><path d="M1724 82L1642 89L1651 148Z" fill="#148bc7" stroke="#148bc7"></path><path d="M1736 160L1724 82L1651 148Z" fill="#1080b8" stroke="#1080b8"></path><path d="M1639 300L1707 300L1707 223Z" fill="#035f8e" stroke="#035f8e"></path><path d="M1707 223L1736 160L1651 148Z" fill="#035f8e" stroke="#035f8e"></path><path d="M1818 128L1736 160L1823 242Z" fill="#0e7ab1" stroke="#0e7ab1"></path><path d="M74 73L113 152L212 55Z" fill="#035f8e" stroke="#035f8e"></path><path d="M93 232L106 300L176 300Z" fill="#0a6fa3" stroke="#0a6fa3"></path><path d="M93 232L176 300L174 211Z" fill="#056495" stroke="#056495"></path><path d="M113 152L93 232L174 211Z" fill="#0e7ab1" stroke="#0e7ab1"></path><path d="M205 0L81 0L212 55Z" fill="#086a9c" stroke="#086a9c"></path><path d="M113 152L0 168L93 232Z" fill="#056495" stroke="#056495"></path><path d="M81 0L74 73L212 55Z" fill="#0a6fa3" stroke="#0a6fa3"></path><path d="M1823 242L1736 160L1707 223Z" fill="#086a9c" stroke="#086a9c"></path><path d="M1736 160L1818 128L1724 82Z" fill="#025a87" stroke="#025a87"></path><path d="M1724 82L1835 0L1709 0Z" fill="#086a9c" stroke="#086a9c"></path><path d="M1707 300L1823 242L1707 223Z" fill="#0e7ab1" stroke="#0e7ab1"></path><path d="M1920 83L1841 88L1920 144Z" fill="#025a87" stroke="#025a87"></path><path d="M1818 128L1841 88L1724 82Z" fill="#1080b8" stroke="#1080b8"></path><path d="M1841 88L1835 0L1724 82Z" fill="#0e7ab1" stroke="#0e7ab1"></path><path d="M1920 144L1841 88L1818 128Z" fill="#086a9c" stroke="#086a9c"></path><path d="M1707 300L1825 300L1823 242Z" fill="#056495" stroke="#056495"></path><path d="M0 0L0 67L74 73Z" fill="#0c74aa" stroke="#0c74aa"></path><path d="M74 73L0 168L113 152Z" fill="#005580" stroke="#005580"></path><path d="M93 232L0 300L106 300Z" fill="#1080b8" stroke="#1080b8"></path><path d="M0 67L0 168L74 73Z" fill="#025a87" stroke="#025a87"></path><path d="M81 0L0 0L74 73Z" fill="#0a6fa3" stroke="#0a6fa3"></path><path d="M0 168L0 236L93 232Z" fill="#056495" stroke="#056495"></path><path d="M0 236L0 300L93 232Z" fill="#0c74aa" stroke="#0c74aa"></path><path d="M1920 144L1818 128L1823 242Z" fill="#1285c0" stroke="#1285c0"></path><path d="M1841 88L1920 0L1835 0Z" fill="#035f8e" stroke="#035f8e"></path><path d="M1920 223L1920 144L1823 242Z" fill="#0c74aa" stroke="#0c74aa"></path><path d="M1920 83L1920 0L1841 88Z" fill="#1080b8" stroke="#1080b8"></path><path d="M1920 300L1920 223L1823 242Z" fill="#056495" stroke="#056495"></path><path d="M1825 300L1920 300L1823 242Z" fill="#0e7ab1" stroke="#0e7ab1"></path></g></svg>