<svg id="visual" viewBox="0 0 1920 250" width="1920" height="250" xmlns="http://www.w3.org/2000/svg" xmlns:xlink="http://www.w3.org/1999/xlink" version="1.1"><path d="M0 31L101 31L101 36L202 36L202 31L303 31L303 31L404 31L404 24L505 24L505 34L606 34L606 36L707 36L707 16L808 16L808 41L909 41L909 39L1011 39L1011 34L1112 34L1112 16L1213 16L1213 11L1314 11L1314 24L1415 24L1415 21L1516 21L1516 29L1617 29L1617 34L1718 34L1718 31L1819 31L1819 14L1920 14L1920 31L1920 0L1920 0L1819 0L1819 0L1718 0L1718 0L1617 0L1617 0L1516 0L1516 0L1415 0L1415 0L1314 0L1314 0L1213 0L1213 0L1112 0L1112 0L1011 0L1011 0L909 0L909 0L808 0L808 0L707 0L707 0L606 0L606 0L505 0L505 0L404 0L404 0L303 0L303 0L202 0L202 0L101 0L101 0L0 0Z" fill="#003956"></path><path d="M0 81L101 81L101 119L202 119L202 66L303 66L303 89L404 89L404 59L505 59L505 109L606 109L606 124L707 124L707 84L808 84L808 119L909 119L909 131L1011 131L1011 86L1112 86L1112 49L1213 49L1213 86L1314 86L1314 69L1415 69L1415 109L1516 109L1516 76L1617 76L1617 124L1718 124L1718 89L1819 89L1819 124L1920 124L1920 114L1920 29L1920 12L1819 12L1819 29L1718 29L1718 32L1617 32L1617 27L1516 27L1516 19L1415 19L1415 22L1314 22L1314 9L1213 9L1213 14L1112 14L1112 32L1011 32L1011 37L909 37L909 39L808 39L808 14L707 14L707 34L606 34L606 32L505 32L505 22L404 22L404 29L303 29L303 29L202 29L202 34L101 34L101 29L0 29Z" fill="#034c70"></path><path d="M0 109L101 109L101 146L202 146L202 84L303 84L303 109L404 109L404 81L505 81L505 121L606 121L606 144L707 144L707 101L808 101L808 129L909 129L909 141L1011 141L1011 99L1112 99L1112 71L1213 71L1213 114L1314 114L1314 96L1415 96L1415 131L1516 131L1516 99L1617 99L1617 156L1718 156L1718 101L1819 101L1819 136L1920 136L1920 131L1920 112L1920 122L1819 122L1819 87L1718 87L1718 122L1617 122L1617 74L1516 74L1516 107L1415 107L1415 67L1314 67L1314 84L1213 84L1213 47L1112 47L1112 84L1011 84L1011 129L909 129L909 117L808 117L808 82L707 82L707 122L606 122L606 107L505 107L505 57L404 57L404 87L303 87L303 64L202 64L202 117L101 117L101 79L0 79Z" fill="#06618b"></path><path d="M0 169L101 169L101 169L202 169L202 119L303 119L303 146L404 146L404 126L505 126L505 139L606 139L606 161L707 161L707 146L808 146L808 166L909 166L909 171L1011 171L1011 141L1112 141L1112 124L1213 124L1213 151L1314 151L1314 131L1415 131L1415 166L1516 166L1516 121L1617 121L1617 194L1718 194L1718 129L1819 129L1819 156L1920 156L1920 174L1920 129L1920 134L1819 134L1819 99L1718 99L1718 154L1617 154L1617 97L1516 97L1516 129L1415 129L1415 94L1314 94L1314 112L1213 112L1213 69L1112 69L1112 97L1011 97L1011 139L909 139L909 127L808 127L808 99L707 99L707 142L606 142L606 119L505 119L505 79L404 79L404 107L303 107L303 82L202 82L202 144L101 144L101 107L0 107Z" fill="#0876a7"></path><path d="M0 184L101 184L101 194L202 194L202 139L303 139L303 174L404 174L404 149L505 149L505 179L606 179L606 184L707 184L707 181L808 181L808 206L909 206L909 201L1011 201L1011 164L1112 164L1112 161L1213 161L1213 181L1314 181L1314 154L1415 154L1415 181L1516 181L1516 136L1617 136L1617 206L1718 206L1718 154L1819 154L1819 191L1920 191L1920 199L1920 172L1920 154L1819 154L1819 127L1718 127L1718 192L1617 192L1617 119L1516 119L1516 164L1415 164L1415 129L1314 129L1314 149L1213 149L1213 122L1112 122L1112 139L1011 139L1011 169L909 169L909 164L808 164L808 144L707 144L707 159L606 159L606 137L505 137L505 124L404 124L404 144L303 144L303 117L202 117L202 167L101 167L101 167L0 167Z" fill="#098cc4"></path><path d="M0 241L101 241L101 231L202 231L202 234L303 234L303 241L404 241L404 226L505 226L505 236L606 236L606 231L707 231L707 229L808 229L808 241L909 241L909 234L1011 234L1011 236L1112 236L1112 226L1213 226L1213 224L1314 224L1314 231L1415 231L1415 239L1516 239L1516 239L1617 239L1617 241L1718 241L1718 234L1819 234L1819 236L1920 236L1920 229L1920 197L1920 189L1819 189L1819 152L1718 152L1718 204L1617 204L1617 134L1516 134L1516 179L1415 179L1415 152L1314 152L1314 179L1213 179L1213 159L1112 159L1112 162L1011 162L1011 199L909 199L909 204L808 204L808 179L707 179L707 182L606 182L606 177L505 177L505 147L404 147L404 172L303 172L303 137L202 137L202 192L101 192L101 182L0 182Z" fill="#06a2e1"></path><path d="M0 251L101 251L101 251L202 251L202 251L303 251L303 251L404 251L404 251L505 251L505 251L606 251L606 251L707 251L707 251L808 251L808 251L909 251L909 251L1011 251L1011 251L1112 251L1112 251L1213 251L1213 251L1314 251L1314 251L1415 251L1415 251L1516 251L1516 251L1617 251L1617 251L1718 251L1718 251L1819 251L1819 251L1920 251L1920 251L1920 227L1920 234L1819 234L1819 232L1718 232L1718 239L1617 239L1617 237L1516 237L1516 237L1415 237L1415 229L1314 229L1314 222L1213 222L1213 224L1112 224L1112 234L1011 234L1011 232L909 232L909 239L808 239L808 227L707 227L707 229L606 229L606 234L505 234L505 224L404 224L404 239L303 239L303 232L202 232L202 229L101 229L101 239L0 239Z" fill="#00b9ff"></path></svg>