<svg id="visual" viewBox="0 0 1920 2000" width="1920" height="2000" xmlns="http://www.w3.org/2000/svg" xmlns:xlink="http://www.w3.org/1999/xlink" version="1.1"><path d="M0 101L128 161L256 121L384 81L512 101L640 61L768 101L896 61L1024 61L1152 61L1280 141L1408 101L1536 61L1664 161L1792 161L1920 141L1920 0L1792 0L1664 0L1536 0L1408 0L1280 0L1152 0L1024 0L896 0L768 0L640 0L512 0L384 0L256 0L128 0L0 0Z" fill="#005580"></path><path d="M0 241L128 221L256 181L384 141L512 181L640 201L768 181L896 161L1024 121L1152 141L1280 201L1408 241L1536 161L1664 261L1792 241L1920 241L1920 139L1792 159L1664 159L1536 59L1408 99L1280 139L1152 59L1024 59L896 59L768 99L640 59L512 99L384 79L256 119L128 159L0 99Z" fill="#035b88"></path><path d="M0 401L128 461L256 321L384 281L512 381L640 441L768 421L896 321L1024 321L1152 401L1280 461L1408 341L1536 341L1664 381L1792 461L1920 481L1920 239L1792 239L1664 259L1536 159L1408 239L1280 199L1152 139L1024 119L896 159L768 179L640 199L512 179L384 139L256 179L128 219L0 239Z" fill="#066290"></path><path d="M0 581L128 581L256 481L384 381L512 541L640 541L768 541L896 441L1024 441L1152 541L1280 661L1408 541L1536 501L1664 481L1792 601L1920 601L1920 479L1792 459L1664 379L1536 339L1408 339L1280 459L1152 399L1024 319L896 319L768 419L640 439L512 379L384 279L256 319L128 459L0 399Z" fill="#0a6899"></path><path d="M0 641L128 661L256 581L384 461L512 661L640 601L768 661L896 561L1024 521L1152 621L1280 721L1408 601L1536 601L1664 601L1792 701L1920 701L1920 599L1792 599L1664 479L1536 499L1408 539L1280 659L1152 539L1024 439L896 439L768 539L640 539L512 539L384 379L256 479L128 579L0 579Z" fill="#0d6fa1"></path><path d="M0 721L128 741L256 681L384 561L512 761L640 681L768 721L896 641L1024 621L1152 721L1280 761L1408 661L1536 681L1664 661L1792 741L1920 801L1920 699L1792 699L1664 599L1536 599L1408 599L1280 719L1152 619L1024 519L896 559L768 659L640 599L512 659L384 459L256 579L128 659L0 639Z" fill="#1076aa"></path><path d="M0 781L128 861L256 781L384 621L512 881L640 741L768 781L896 761L1024 741L1152 841L1280 861L1408 781L1536 781L1664 721L1792 801L1920 861L1920 799L1792 739L1664 659L1536 679L1408 659L1280 759L1152 719L1024 619L896 639L768 719L640 679L512 759L384 559L256 679L128 739L0 719Z" fill="#137cb2"></path><path d="M0 1321L128 1441L256 1181L384 1121L512 1201L640 1101L768 1281L896 1341L1024 1341L1152 1221L1280 1201L1408 1301L1536 1301L1664 1061L1792 1321L1920 1221L1920 859L1792 799L1664 719L1536 779L1408 779L1280 859L1152 839L1024 739L896 759L768 779L640 739L512 879L384 619L256 779L128 859L0 779Z" fill="#1683bb"></path><path d="M0 1461L128 1521L256 1261L384 1201L512 1321L640 1221L768 1461L896 1441L1024 1421L1152 1361L1280 1321L1408 1381L1536 1381L1664 1181L1792 1401L1920 1361L1920 1219L1792 1319L1664 1059L1536 1299L1408 1299L1280 1199L1152 1219L1024 1339L896 1339L768 1279L640 1099L512 1199L384 1119L256 1179L128 1439L0 1319Z" fill="#198ac4"></path><path d="M0 1761L128 1761L256 1721L384 1721L512 1721L640 1621L768 1781L896 1721L1024 1661L1152 1621L1280 1701L1408 1581L1536 1621L1664 1721L1792 1761L1920 1761L1920 1359L1792 1399L1664 1179L1536 1379L1408 1379L1280 1319L1152 1359L1024 1419L896 1439L768 1459L640 1219L512 1319L384 1199L256 1259L128 1519L0 1459Z" fill="#1b91cd"></path><path d="M0 1841L128 1861L256 1801L384 1781L512 1821L640 1721L768 1841L896 1761L1024 1741L1152 1701L1280 1781L1408 1661L1536 1701L1664 1801L1792 1861L1920 1841L1920 1759L1792 1759L1664 1719L1536 1619L1408 1579L1280 1699L1152 1619L1024 1659L896 1719L768 1779L640 1619L512 1719L384 1719L256 1719L128 1759L0 1759Z" fill="#1e98d6"></path><path d="M0 2001L128 2001L256 2001L384 2001L512 2001L640 2001L768 2001L896 2001L1024 2001L1152 2001L1280 2001L1408 2001L1536 2001L1664 2001L1792 2001L1920 2001L1920 1839L1792 1859L1664 1799L1536 1699L1408 1659L1280 1779L1152 1699L1024 1739L896 1759L768 1839L640 1719L512 1819L384 1779L256 1799L128 1859L0 1839Z" fill="#209fdf"></path></svg>