<svg id="visual" viewBox="0 0 1920 1000" width="1920" height="1000" xmlns="http://www.w3.org/2000/svg" xmlns:xlink="http://www.w3.org/1999/xlink" version="1.1"><path d="M0 71L83 71L83 91L167 91L167 171L250 171L250 151L334 151L334 61L417 61L417 101L501 101L501 101L584 101L584 91L668 91L668 161L751 161L751 81L835 81L835 71L918 71L918 71L1002 71L1002 91L1085 91L1085 171L1169 171L1169 141L1252 141L1252 111L1336 111L1336 91L1419 91L1419 81L1503 81L1503 171L1586 171L1586 61L1670 61L1670 111L1753 111L1753 161L1837 161L1837 61L1920 61L1920 111L1920 0L1920 0L1837 0L1837 0L1753 0L1753 0L1670 0L1670 0L1586 0L1586 0L1503 0L1503 0L1419 0L1419 0L1336 0L1336 0L1252 0L1252 0L1169 0L1169 0L1085 0L1085 0L1002 0L1002 0L918 0L918 0L835 0L835 0L751 0L751 0L668 0L668 0L584 0L584 0L501 0L501 0L417 0L417 0L334 0L334 0L250 0L250 0L167 0L167 0L83 0L83 0L0 0Z" fill="#003956"></path><path d="M0 121L83 121L83 151L167 151L167 251L250 251L250 251L334 251L334 121L417 121L417 181L501 181L501 151L584 151L584 171L668 171L668 231L751 231L751 181L835 181L835 141L918 141L918 171L1002 171L1002 151L1085 151L1085 261L1169 261L1169 201L1252 201L1252 141L1336 141L1336 151L1419 151L1419 121L1503 121L1503 271L1586 271L1586 161L1670 161L1670 191L1753 191L1753 251L1837 251L1837 91L1920 91L1920 171L1920 109L1920 59L1837 59L1837 159L1753 159L1753 109L1670 109L1670 59L1586 59L1586 169L1503 169L1503 79L1419 79L1419 89L1336 89L1336 109L1252 109L1252 139L1169 139L1169 169L1085 169L1085 89L1002 89L1002 69L918 69L918 69L835 69L835 79L751 79L751 159L668 159L668 89L584 89L584 99L501 99L501 99L417 99L417 59L334 59L334 149L250 149L250 169L167 169L167 89L83 89L83 69L0 69Z" fill="#014565"></path><path d="M0 181L83 181L83 191L167 191L167 321L250 321L250 311L334 311L334 201L417 201L417 271L501 271L501 191L584 191L584 251L668 251L668 281L751 281L751 241L835 241L835 201L918 201L918 211L1002 211L1002 241L1085 241L1085 311L1169 311L1169 231L1252 231L1252 201L1336 201L1336 181L1419 181L1419 211L1503 211L1503 331L1586 331L1586 211L1670 211L1670 241L1753 241L1753 281L1837 281L1837 171L1920 171L1920 221L1920 169L1920 89L1837 89L1837 249L1753 249L1753 189L1670 189L1670 159L1586 159L1586 269L1503 269L1503 119L1419 119L1419 149L1336 149L1336 139L1252 139L1252 199L1169 199L1169 259L1085 259L1085 149L1002 149L1002 169L918 169L918 139L835 139L835 179L751 179L751 229L668 229L668 169L584 169L584 149L501 149L501 179L417 179L417 119L334 119L334 249L250 249L250 249L167 249L167 149L83 149L83 119L0 119Z" fill="#035075"></path><path d="M0 211L83 211L83 231L167 231L167 351L250 351L250 371L334 371L334 231L417 231L417 291L501 291L501 231L584 231L584 281L668 281L668 301L751 301L751 261L835 261L835 241L918 241L918 251L1002 251L1002 271L1085 271L1085 331L1169 331L1169 271L1252 271L1252 221L1336 221L1336 221L1419 221L1419 251L1503 251L1503 351L1586 351L1586 231L1670 231L1670 271L1753 271L1753 321L1837 321L1837 211L1920 211L1920 271L1920 219L1920 169L1837 169L1837 279L1753 279L1753 239L1670 239L1670 209L1586 209L1586 329L1503 329L1503 209L1419 209L1419 179L1336 179L1336 199L1252 199L1252 229L1169 229L1169 309L1085 309L1085 239L1002 239L1002 209L918 209L918 199L835 199L835 239L751 239L751 279L668 279L668 249L584 249L584 189L501 189L501 269L417 269L417 199L334 199L334 309L250 309L250 319L167 319L167 189L83 189L83 179L0 179Z" fill="#055d86"></path><path d="M0 341L83 341L83 401L167 401L167 491L250 491L250 491L334 491L334 451L417 451L417 471L501 471L501 401L584 401L584 591L668 591L668 491L751 491L751 471L835 471L835 491L918 491L918 481L1002 481L1002 521L1085 521L1085 441L1169 441L1169 591L1252 591L1252 331L1336 331L1336 331L1419 331L1419 511L1503 511L1503 511L1586 511L1586 451L1670 451L1670 531L1753 531L1753 491L1837 491L1837 391L1920 391L1920 551L1920 269L1920 209L1837 209L1837 319L1753 319L1753 269L1670 269L1670 229L1586 229L1586 349L1503 349L1503 249L1419 249L1419 219L1336 219L1336 219L1252 219L1252 269L1169 269L1169 329L1085 329L1085 269L1002 269L1002 249L918 249L918 239L835 239L835 259L751 259L751 299L668 299L668 279L584 279L584 229L501 229L501 289L417 289L417 229L334 229L334 369L250 369L250 349L167 349L167 229L83 229L83 209L0 209Z" fill="#076996"></path><path d="M0 391L83 391L83 431L167 431L167 561L250 561L250 531L334 531L334 501L417 501L417 501L501 501L501 471L584 471L584 641L668 641L668 511L751 511L751 511L835 511L835 531L918 531L918 511L1002 511L1002 591L1085 591L1085 471L1169 471L1169 641L1252 641L1252 361L1336 361L1336 401L1419 401L1419 571L1503 571L1503 551L1586 551L1586 491L1670 491L1670 601L1753 601L1753 561L1837 561L1837 461L1920 461L1920 601L1920 549L1920 389L1837 389L1837 489L1753 489L1753 529L1670 529L1670 449L1586 449L1586 509L1503 509L1503 509L1419 509L1419 329L1336 329L1336 329L1252 329L1252 589L1169 589L1169 439L1085 439L1085 519L1002 519L1002 479L918 479L918 489L835 489L835 469L751 469L751 489L668 489L668 589L584 589L584 399L501 399L501 469L417 469L417 449L334 449L334 489L250 489L250 489L167 489L167 399L83 399L83 339L0 339Z" fill="#0876a7"></path><path d="M0 481L83 481L83 571L167 571L167 611L250 611L250 601L334 601L334 571L417 571L417 641L501 641L501 621L584 621L584 731L668 731L668 571L751 571L751 611L835 611L835 581L918 581L918 591L1002 591L1002 661L1085 661L1085 531L1169 531L1169 741L1252 741L1252 471L1336 471L1336 521L1419 521L1419 701L1503 701L1503 641L1586 641L1586 561L1670 561L1670 711L1753 711L1753 611L1837 611L1837 591L1920 591L1920 711L1920 599L1920 459L1837 459L1837 559L1753 559L1753 599L1670 599L1670 489L1586 489L1586 549L1503 549L1503 569L1419 569L1419 399L1336 399L1336 359L1252 359L1252 639L1169 639L1169 469L1085 469L1085 589L1002 589L1002 509L918 509L918 529L835 529L835 509L751 509L751 509L668 509L668 639L584 639L584 469L501 469L501 499L417 499L417 499L334 499L334 529L250 529L250 559L167 559L167 429L83 429L83 389L0 389Z" fill="#0983b8"></path><path d="M0 581L83 581L83 661L167 661L167 681L250 681L250 711L334 711L334 671L417 671L417 701L501 701L501 721L584 721L584 781L668 781L668 631L751 631L751 721L835 721L835 681L918 681L918 641L1002 641L1002 771L1085 771L1085 621L1169 621L1169 781L1252 781L1252 511L1336 511L1336 591L1419 591L1419 791L1503 791L1503 731L1586 731L1586 641L1670 641L1670 761L1753 761L1753 661L1837 661L1837 661L1920 661L1920 751L1920 709L1920 589L1837 589L1837 609L1753 609L1753 709L1670 709L1670 559L1586 559L1586 639L1503 639L1503 699L1419 699L1419 519L1336 519L1336 469L1252 469L1252 739L1169 739L1169 529L1085 529L1085 659L1002 659L1002 589L918 589L918 579L835 579L835 609L751 609L751 569L668 569L668 729L584 729L584 619L501 619L501 639L417 639L417 569L334 569L334 599L250 599L250 609L167 609L167 569L83 569L83 479L0 479Z" fill="#0890c9"></path><path d="M0 651L83 651L83 731L167 731L167 701L250 701L250 741L334 741L334 741L417 741L417 771L501 771L501 741L584 741L584 801L668 801L668 691L751 691L751 751L835 751L835 731L918 731L918 691L1002 691L1002 821L1085 821L1085 641L1169 641L1169 801L1252 801L1252 561L1336 561L1336 611L1419 611L1419 851L1503 851L1503 781L1586 781L1586 711L1670 711L1670 831L1753 831L1753 701L1837 701L1837 721L1920 721L1920 781L1920 749L1920 659L1837 659L1837 659L1753 659L1753 759L1670 759L1670 639L1586 639L1586 729L1503 729L1503 789L1419 789L1419 589L1336 589L1336 509L1252 509L1252 779L1169 779L1169 619L1085 619L1085 769L1002 769L1002 639L918 639L918 679L835 679L835 719L751 719L751 629L668 629L668 779L584 779L584 719L501 719L501 699L417 699L417 669L334 669L334 709L250 709L250 679L167 679L167 659L83 659L83 579L0 579Z" fill="#079ddb"></path><path d="M0 931L83 931L83 961L167 961L167 961L250 961L250 971L334 971L334 931L417 931L417 961L501 961L501 971L584 971L584 931L668 931L668 931L751 931L751 971L835 971L835 921L918 921L918 941L1002 941L1002 961L1085 961L1085 931L1169 931L1169 961L1252 961L1252 921L1336 921L1336 941L1419 941L1419 961L1503 961L1503 971L1586 971L1586 921L1670 921L1670 931L1753 931L1753 951L1837 951L1837 931L1920 931L1920 961L1920 779L1920 719L1837 719L1837 699L1753 699L1753 829L1670 829L1670 709L1586 709L1586 779L1503 779L1503 849L1419 849L1419 609L1336 609L1336 559L1252 559L1252 799L1169 799L1169 639L1085 639L1085 819L1002 819L1002 689L918 689L918 729L835 729L835 749L751 749L751 689L668 689L668 799L584 799L584 739L501 739L501 769L417 769L417 739L334 739L334 739L250 739L250 699L167 699L167 729L83 729L83 649L0 649Z" fill="#04abed"></path><path d="M0 1001L83 1001L83 1001L167 1001L167 1001L250 1001L250 1001L334 1001L334 1001L417 1001L417 1001L501 1001L501 1001L584 1001L584 1001L668 1001L668 1001L751 1001L751 1001L835 1001L835 1001L918 1001L918 1001L1002 1001L1002 1001L1085 1001L1085 1001L1169 1001L1169 1001L1252 1001L1252 1001L1336 1001L1336 1001L1419 1001L1419 1001L1503 1001L1503 1001L1586 1001L1586 1001L1670 1001L1670 1001L1753 1001L1753 1001L1837 1001L1837 1001L1920 1001L1920 1001L1920 959L1920 929L1837 929L1837 949L1753 949L1753 929L1670 929L1670 919L1586 919L1586 969L1503 969L1503 959L1419 959L1419 939L1336 939L1336 919L1252 919L1252 959L1169 959L1169 929L1085 929L1085 959L1002 959L1002 939L918 939L918 919L835 919L835 969L751 969L751 929L668 929L668 929L584 929L584 969L501 969L501 959L417 959L417 929L334 929L334 969L250 969L250 959L167 959L167 959L83 959L83 929L0 929Z" fill="#00b9ff"></path></svg>