<svg id="visual" viewBox="0 0 1920 3840" width="1920" height="3840" xmlns="http://www.w3.org/2000/svg" xmlns:xlink="http://www.w3.org/1999/xlink" version="1.1"><path d="M0 615L384 1076L768 385L1152 462L1536 884L1920 1767L1920 0L1536 0L1152 0L768 0L384 0L0 0Z" fill="#005580"></path><path d="M0 1921L384 1921L768 807L1152 654L1536 1460L1920 1959L1920 1765L1536 882L1152 460L768 383L384 1074L0 613Z" fill="#005982"></path><path d="M0 1998L384 2190L768 999L1152 1153L1536 1691L1920 1959L1920 1957L1536 1458L1152 652L768 805L384 1919L0 1919Z" fill="#005c84"></path><path d="M0 2267L384 2497L768 1345L1152 1191L1536 1767L1920 1959L1920 1957L1536 1689L1152 1151L768 997L384 2188L0 1996Z" fill="#005f85"></path><path d="M0 2267L384 2766L768 1345L1152 1499L1536 1806L1920 1998L1920 1957L1536 1765L1152 1189L768 1343L384 2495L0 2265Z" fill="#006387"></path><path d="M0 3073L384 2843L768 3035L1152 2305L1536 2535L1920 1998L1920 1996L1536 1804L1152 1497L768 1343L384 2764L0 2265Z" fill="#006688"></path><path d="M0 3073L384 3073L768 3188L1152 2651L1536 2881L1920 2036L1920 1996L1536 2533L1152 2303L768 3033L384 2841L0 3071Z" fill="#006a8a"></path><path d="M0 3265L384 3150L768 3572L1152 2766L1536 3073L1920 2036L1920 2034L1536 2879L1152 2649L768 3186L384 3071L0 3071Z" fill="#006d8b"></path><path d="M0 3572L384 3534L768 3649L1152 2958L1536 3073L1920 2420L1920 2034L1536 3071L1152 2764L768 3570L384 3148L0 3263Z" fill="#00718b"></path><path d="M0 3649L384 3687L768 3687L1152 3035L1536 3073L1920 2727L1920 2418L1536 3071L1152 2956L768 3647L384 3532L0 3570Z" fill="#05748c"></path><path d="M0 3803L384 3841L768 3841L1152 3227L1536 3342L1920 3265L1920 2725L1536 3071L1152 3033L768 3685L384 3685L0 3647Z" fill="#0c788d"></path><path d="M0 3841L384 3841L768 3841L1152 3841L1536 3841L1920 3841L1920 3263L1536 3340L1152 3225L768 3839L384 3839L0 3801Z" fill="#137b8d"></path></svg>